<?xml version="1.0" encoding="UTF-8"?>
<svg id="Layer_1" data-name="Layer 1" xmlns="http://www.w3.org/2000/svg" version="1.1" viewBox="0 0 1050 165.9">
  <defs>
    <style>
      .cls-1 {
        fill: #fdf2af;
      }

      .cls-1, .cls-2, .cls-3, .cls-4 {
        stroke-width: 0px;
      }

      .cls-2 {
        fill: #936b47;
      }

      .cls-5 {
        stroke-width: 1.5px;
      }

      .cls-5, .cls-6, .cls-7, .cls-8 {
        fill: #f7a867;
        stroke: #936a46;
        stroke-miterlimit: 10;
      }

      .cls-6 {
        stroke-width: 1.1px;
      }

      .cls-7 {
        stroke-width: .9px;
      }

      .cls-8 {
        stroke-width: .9px;
      }

      .cls-3 {
        fill: #007165;
      }

      .cls-9 {
        opacity: .2;
      }

      .cls-4 {
        fill: #936a46;
      }
    </style>
  </defs>
  <g>
    <path class="cls-3" d="M328.4,165.9h-36.4l-14.5-37.7h-66.3l-13.7,37.7h-35.5L226.6,0h35.4l66.4,165.9ZM266.8,100.3l-22.9-61.6-22.4,61.6h45.3Z"/>
    <path class="cls-3" d="M369.3,0h61.2c13.8,0,24.3,1.1,31.6,3.2,9.7,2.9,18.1,8,25,15.3,6.9,7.3,12.2,16.3,15.8,26.9,3.6,10.6,5.4,23.7,5.4,39.2s-1.7,25.4-5.1,35.3c-4.1,12.1-10.1,21.8-17.8,29.3-5.8,5.7-13.7,10.1-23.5,13.2-7.4,2.3-17.3,3.5-29.6,3.5h-63V0ZM402.7,28.1v109.9h25c9.4,0,16.1-.5,20.3-1.6,5.4-1.4,9.9-3.7,13.5-6.9,3.6-3.2,6.5-8.6,8.8-16,2.3-7.4,3.4-17.6,3.4-30.4s-1.1-22.7-3.4-29.5c-2.3-6.9-5.4-12.2-9.5-16.1-4.1-3.8-9.2-6.5-15.5-7.8-4.7-1.1-13.8-1.6-27.5-1.6h-15Z"/>
    <path class="cls-3" d="M559.9,165.9V0h123v28.1h-89.5v36.8h83.3v27.9h-83.3v45.1h92.7v27.9h-126.2Z"/>
    <path class="cls-3" d="M737.7,165.9V0h70.5c17.7,0,30.6,1.5,38.6,4.5,8,3,14.5,8.3,19.3,15.9,4.8,7.6,7.2,16.3,7.2,26.1s-3.7,22.7-11,30.8c-7.3,8.1-18.3,13.2-32.8,15.3,7.2,4.2,13.2,8.9,17.9,13.9,4.7,5.1,11.1,14,19.1,26.9l20.3,32.4h-40.1l-24.2-36.1c-8.6-12.9-14.5-21-17.7-24.4-3.2-3.4-6.5-5.7-10.1-6.9-3.5-1.2-9.2-1.9-16.9-1.9h-6.8v69.2h-33.5ZM771.2,70.2h24.8c16.1,0,26.1-.7,30.1-2,4-1.4,7.1-3.7,9.4-7,2.3-3.3,3.4-7.5,3.4-12.4s-1.5-10.1-4.5-13.5c-3-3.4-7.2-5.6-12.6-6.5-2.7-.4-10.9-.6-24.4-.6h-26.1v42.1Z"/>
  </g>
  <g>
    <path class="cls-3" d="M906.4,165.9v-52.8h10.8v43.9h26.7v9h-37.5Z"/>
    <path class="cls-3" d="M999.6,165.9h-11.7l-4.7-12.1h-21.3l-4.4,12.1h-11.4l20.8-53.3h11.4l21.3,53.3ZM979.8,144.8l-7.3-19.8-7.2,19.8h14.5Z"/>
    <path class="cls-3" d="M1005.4,112.6h21.3c4.2,0,7.4.2,9.4.5s3.9,1.1,5.6,2.2c1.6,1.1,3,2.6,4.1,4.5,1.1,1.9,1.6,3.9,1.6,6.2s-.7,4.8-2,6.9c-1.3,2.1-3.2,3.6-5.5,4.7,3.2.9,5.7,2.6,7.5,4.8,1.7,2.3,2.6,5,2.6,8s-.6,4.8-1.7,7.1c-1.1,2.3-2.7,4.1-4.6,5.5-2,1.4-4.4,2.2-7.2,2.5-1.8.2-6.1.3-13,.4h-18.1v-53.3ZM1016.1,121.5v12.3h7.1c4.2,0,6.8,0,7.8-.2,1.8-.2,3.3-.9,4.3-1.9,1.1-1.1,1.6-2.4,1.6-4.2s-.5-3-1.4-4c-.9-1-2.3-1.7-4.1-1.9-1.1-.1-4.1-.2-9.2-.2h-6.2ZM1016.1,142.7v14.2h10c3.9,0,6.3-.1,7.4-.3,1.6-.3,2.9-1,3.9-2.1,1-1.1,1.5-2.6,1.5-4.5s-.4-3-1.2-4.1c-.8-1.1-1.9-1.9-3.4-2.4-1.5-.5-4.6-.8-9.5-.8h-8.7Z"/>
  </g>
  <g>
    <path class="cls-3" d="M15.8,53.1V8.8H0V-.2h42.3v9h-15.8v44.3h-10.8Z"/>
    <path class="cls-3" d="M49.3,53.1V-.2h10.8v21h21.1V-.2h10.8v53.3h-10.8v-23.3h-21.1v23.3h-10.8Z"/>
    <path class="cls-3" d="M103,53.1V-.2h39.5v9h-28.7v11.8h26.7v9h-26.7v14.5h29.8v9h-40.5Z"/>
  </g>
  <g>
    <g>
      <path class="cls-1" d="M156.7,161.9c-4.6,0-9.1-2-12.2-5.4l-7.3-8.1c-2.9-3.2-4.4-7.4-4.1-11.8s2.1-8.4,5.4-11.2l31.6-28.4c3-2.7,12.8-6.4,15.3-6.8,4-.6,6.1-.7,7.4-.8,1.9,0,2.3-.2,3-1.7.1-.3.3-.6.5-1,1.7-3.3-.5-5.9-3-8.9-1.1-1.3-2.3-2.7-3.4-4.4-.4-.5-.9-1.2-1.6-2-1.8-2.2-4.6-5.4-6-9.8-4.8-15.5-10.2-38.6-10.3-38.8-1.8-8.8,3.8-17.4,12.6-19.3l10.7-2.2c1.1-.2,2.2-.3,3.3-.3,7.7,0,14.4,5.4,16,12.9v.2s.2.2.2.2c1.2,2.4,7.2,43.6,5.4,51.3-2.2,9.2-8.6,13.7-13.2,16.3-3.2,1.8-6.1,3.8-6.1,8.6,0,3,.3,5.4,3.3,9.2,3.3,4.2,2.6,11.3-1.9,19.3-3.4,6.1-34.5,38.7-34.8,39-2.9,2.6-6.8,4.1-10.8,4.1h0Z"/>
      <path class="cls-4" d="M198.8,1.7c7.3,0,13.6,5.2,15.1,12.3v.4c0,0,.2.2.2.2,1.2,3.3,7.1,43.2,5.3,50.6-2.1,8.8-8.3,13.2-12.8,15.7-3.3,1.9-6.6,4.1-6.5,9.3,0,3,.3,5.7,3.4,9.7,3.1,4,2.3,10.6-2,18.3-2.7,4.8-23.8,27.5-34.6,38.8-2.8,2.5-6.4,3.9-10.2,3.9s-8.6-1.9-11.5-5.1l-7.3-8.1c-5.7-6.3-5.1-16.1,1.2-21.8l31.6-28.4c2.9-2.6,12.5-6.3,14.8-6.6,3.9-.6,6.1-.7,7.3-.8,2.2-.1,2.9-.3,3.8-2.2.1-.3.3-.6.5-1,2-3.9-.5-6.8-3.1-9.8-1.1-1.3-2.3-2.7-3.4-4.3-.4-.6-1-1.3-1.6-2.1-1.8-2.1-4.5-5.3-5.8-9.5-4.7-15.4-10.2-38.5-10.3-38.7-1.7-8.3,3.6-16.5,11.9-18.3l10.7-2.2c1-.2,2.1-.3,3.2-.3M198.8,0c-1.2,0-2.3.1-3.5.4l-10.7,2.2c-9.2,1.9-15.2,11.1-13.3,20.3,0,0,5.5,23.2,10.3,38.8,1.9,6.1,6.3,10,7.6,12,3.7,5.7,8.5,8.4,6.4,12.4-1.7,3.4.6,1.4-10.3,3.1-2.6.4-12.6,4.2-15.7,7-12.7,11.4-31.6,28.4-31.6,28.4-7,6.3-7.6,17.2-1.3,24.2l7.3,8.1c3.4,3.8,8.1,5.7,12.8,5.7s8.2-1.4,11.4-4.4c0,0,31.4-32.9,35-39.2,4.3-7.7,5.6-15.3,1.8-20.2-2.9-3.7-3-6-3.1-8.7,0-4.1,2.3-6,5.6-7.8,5.1-2.9,11.5-7.6,13.6-16.8,1.9-8-4.4-50.5-5.6-52-1.7-8.1-8.9-13.6-16.8-13.6h0Z"/>
    </g>
    <circle class="cls-6" cx="199" cy="45" r="12" transform="translate(94.3 220.2) rotate(-71.9)"/>
    <circle class="cls-6" cx="171.8" cy="123.2" r="12" transform="translate(1.2 248.1) rotate(-71.9)"/>
  </g>
  <g>
    <g>
      <path class="cls-1" d="M533.2,166.8c-2.8,0-5.5-.7-7.9-2.1l-9.2-5.3c-3.7-2.1-6.3-5.6-7.4-9.7-1.1-4.1-.5-8.4,1.6-12.1,0,0,19.5-33.8,26-45.1,1.8-3.2,3-4.2,3.8-4.9.9-.8,1.3-1.3,1.3-2.9s-.5-2.1-1.3-2.8c-.7-.7-2-1.7-3.8-4.9-6.5-11.3-26-45.1-26-45.1-2.1-3.7-2.7-8-1.6-12.1s3.7-7.6,7.4-9.7l9.2-5.3c2.4-1.4,5.1-2.1,7.9-2.1,5.7,0,11,3.1,13.9,8l26,45.1c4.4,7.7,2.6,20-.9,23.4-.4.3-4.2,3.4-4.2,6.5s2.9,5.9,3.3,6.3c5.5,8,6,14.5,1.8,21.8l-26,45.1c-2.8,4.9-8.1,8-13.9,8h0Z"/>
      <path class="cls-4" d="M533.2,3.5c5.4,0,10.4,2.9,13.1,7.5l26,45.1c4.3,7.5,2.2,19.3-.7,22.3-.7.6-4.5,3.8-4.5,7.2s2.8,6.2,3.5,6.9c5.2,7.7,5.7,13.9,1.7,20.9l-26,45.1c-2.7,4.6-7.7,7.5-13.1,7.5s-5.2-.7-7.5-2l-9.2-5.3c-7.2-4.2-9.7-13.4-5.5-20.6,0,0,19.5-33.8,26-45.1,1.8-3,2.9-4,3.6-4.7,1-.9,1.6-1.6,1.6-3.5s-.6-2.6-1.6-3.5c-.7-.7-1.9-1.7-3.6-4.7-6.4-11.1-25.8-44.7-26-45.1-4.2-7.2-1.7-16.5,5.5-20.6l9.2-5.3c2.3-1.3,4.9-2,7.5-2M533.2,1.8c-2.8,0-5.7.7-8.4,2.2l-9.2,5.3c-8,4.6-10.8,15-6.2,23,0,0,19.5,33.8,26,45.1,3.7,6.4,5,4.7,5,7.3s-1.4,1-5,7.3c-6.5,11.3-26,45.1-26,45.1-4.6,8-1.9,18.3,6.2,23l9.2,5.3c2.6,1.5,5.5,2.2,8.4,2.2,5.8,0,11.5-3,14.6-8.4l26-45.1c4.6-8,3.5-15-1.9-22.8,0,0-3.1-3.1-3.1-5.8s3.9-5.9,3.9-5.9c3.7-3.6,5.7-16.4,1.1-24.4l-26-45.1c-3.1-5.4-8.8-8.4-14.6-8.4h0Z"/>
    </g>
    <path class="cls-7" d="M542.8,49.3l-3.5-6c-4.8,1.5-10-.9-11.8-5.6-1.9-4.9.5-10.5,5.4-12.4,4.9-1.9,10.5.5,12.4,5.4,1.5,3.8.4,8-2.5,10.6l3.5,6c4.8-1.5,10,.9,11.8,5.6,1.9,4.9-.5,10.5-5.4,12.4-4.9,1.9-10.5-.5-12.4-5.4-1.5-3.8-.4-8,2.5-10.6Z"/>
    <path class="cls-2" d="M560,48c4.4,7.6,3.6,16.4-3.8,20.6-7.4,4.3-15.4.6-19.8-7,0,0,0-.5.4-.7.5-.3.8,0,.8,0,4,6.9,11.1,10.4,17.8,6.5,6.7-3.9,7.3-11.7,3.3-18.7,0,0,0-.5.4-.7s.8,0,.8,0h0Z"/>
    <path class="cls-2" d="M525.8,42.8c-4.4-7.6-3.6-16.4,3.8-20.6,7.4-4.3,15.4-.6,19.8,7,0,0,0,.5-.4.7-.5.3-.8,0-.8,0-4-6.9-11.1-10.4-17.8-6.5-6.7,3.9-7.3,11.7-3.3,18.7,0,0,0,.5-.4.7s-.8,0-.8,0h0Z"/>
    <path class="cls-7" d="M545.4,121.3l-3.5,6c3.7,3.4,4.2,9.1,1,13.1-3.3,4.1-9.4,4.8-13.5,1.4-4.1-3.3-4.8-9.4-1.4-13.5,2.6-3.2,6.7-4.3,10.4-3.1l3.5-6c-3.7-3.4-4.2-9.1-1-13.1,3.3-4.1,9.4-4.8,13.5-1.4,4.1,3.3,4.8,9.4,1.4,13.5-2.6,3.2-6.7,4.3-10.4,3.1Z"/>
    <path class="cls-2" d="M535.7,107c4.4-7.6,12.4-11.2,19.8-6.9,7.4,4.3,8.1,13,3.7,20.6,0,0-.4.3-.8,0-.5-.3-.4-.7-.4-.7,4-6.9,3.5-14.8-3.2-18.7-6.7-3.9-13.8-.5-17.9,6.4,0,0-.4.3-.8,0s-.4-.7-.4-.7h0Z"/>
    <path class="cls-2" d="M548.2,139.3c-4.4,7.6-12.4,11.2-19.8,6.9-7.4-4.3-8.1-13-3.7-20.6,0,0,.4-.3.8,0,.5.3.4.7.4.7-4,6.9-3.5,14.8,3.2,18.7,6.7,3.9,13.8.5,17.9-6.4,0,0,.4-.3.8,0s.4.7.4.7h0Z"/>
  </g>
  <g>
    <g class="cls-9">
      <path class="cls-1" d="M721.4,166.8c-2.8,0-5.5-.7-7.9-2.1l-9.2-5.3c-3.7-2.1-6.3-5.6-7.4-9.7-1.1-4.1-.5-8.4,1.6-12.1,0,0,19.5-33.8,26-45.1,1.8-3.2,3-4.2,3.8-4.9.9-.8,1.3-1.3,1.3-2.9s-.5-2.1-1.3-2.8c-.7-.7-2-1.7-3.8-4.9-6.5-11.3-26-45.1-26-45.1-4.4-7.6-1.8-17.4,5.8-21.8l9.2-5.3c2.4-1.4,5.1-2.1,7.9-2.1,5.7,0,11,3.1,13.9,8l26,45.1c4.4,7.7,2.6,20-.9,23.4-.4.3-4.2,3.4-4.2,6.5s2.9,5.9,3.3,6.3c5.5,8,6,14.5,1.8,21.8l-26,45.1c-2.8,4.9-8.1,8-13.9,8h0Z"/>
      <path class="cls-4" d="M721.4,3.5c5.4,0,10.4,2.9,13.1,7.5l26,45.1c4.3,7.5,2.2,19.3-.7,22.3-.7.6-4.5,3.8-4.5,7.2s2.8,6.2,3.5,6.9c5.2,7.7,5.7,13.9,1.7,20.9l-26,45.1c-2.7,4.6-7.7,7.5-13.1,7.5s-5.2-.7-7.5-2l-9.2-5.3c-7.2-4.2-9.7-13.4-5.5-20.6,0,0,19.5-33.8,26-45.1,1.8-3,2.9-4,3.6-4.7,1-.9,1.6-1.6,1.6-3.5s-.6-2.6-1.6-3.5c-.7-.7-1.9-1.7-3.6-4.7-6.4-11.1-25.8-44.7-26-45.1-4.2-7.2-1.7-16.5,5.5-20.6l9.2-5.3c2.3-1.3,4.9-2,7.5-2M721.4,1.8c-2.8,0-5.7.7-8.4,2.2l-9.2,5.3c-8,4.6-10.8,15-6.2,23,0,0,19.5,33.8,26,45.1,3.7,6.4,5,4.7,5,7.3s-1.4,1-5,7.3c-6.5,11.3-26,45.1-26,45.1-4.6,8-1.9,18.3,6.2,23l9.2,5.3c2.6,1.5,5.5,2.2,8.4,2.2,5.8,0,11.5-3,14.6-8.4l26-45.1c4.6-8,3.5-15-1.9-22.8,0,0-3.1-3.1-3.1-5.8s3.9-5.9,3.9-5.9c3.7-3.6,5.7-16.4,1.1-24.4l-26-45.1c-3.1-5.4-8.8-8.4-14.6-8.4h0Z"/>
    </g>
    <g>
      <path class="cls-1" d="M716.7,42.2c-2.4,0-4.7-.6-6.8-1.8-3.5-2-5.9-5.5-6.7-9.8-.8-4.4,0-9,2.4-13.2,3.4-5.9,9.3-9.5,15.3-9.5s4.7.6,6.8,1.8c7.3,4.2,9.2,14.5,4.3,23-3.4,5.9-9.3,9.5-15.3,9.5Z"/>
      <path class="cls-4" d="M720.9,8.8h0c2.3,0,4.4.6,6.3,1.7,6.8,3.9,8.6,13.7,4,21.7-3.2,5.6-8.8,9.1-14.5,9.1s-4.4-.6-6.3-1.7c-3.3-1.9-5.5-5.1-6.2-9.2-.8-4.1,0-8.6,2.3-12.5,3.2-5.6,8.8-9.1,14.5-9.1M720.9,6.9c-6.1,0-12.5,3.7-16.2,10-5.2,9-3.1,19.9,4.7,24.3,2.3,1.3,4.7,1.9,7.3,1.9,6.1,0,12.5-3.7,16.2-10,5.2-9,3.1-19.9-4.7-24.3-2.3-1.3-4.7-1.9-7.3-1.9h0Z"/>
    </g>
    <circle class="cls-8" cx="715" cy="28.6" r="9.6"/>
    <g>
      <path class="cls-1" d="M736.1,74.9c-1.9,0-3.7-.4-5.4-1.1-7.7-3.4-10.7-13.4-6.8-22.4,3-6.7,9.3-11.2,15.7-11.2s3.7.4,5.4,1.1c3.7,1.6,6.5,4.8,7.7,9,1.3,4.2,1,9-1,13.4-3,6.7-9.3,11.2-15.7,11.2Z"/>
      <path class="cls-4" d="M739.7,41.1h0c1.7,0,3.4.4,5,1,7.2,3.2,10,12.6,6.3,21.1-2.8,6.4-8.8,10.6-14.8,10.6s-3.4-.4-5-1c-7.2-3.2-10-12.6-6.3-21.1,2.8-6.4,8.8-10.6,14.8-10.6M739.7,39.2c-6.7,0-13.4,4.5-16.6,11.8-4.2,9.5-.9,20.1,7.3,23.7,1.9.8,3.8,1.2,5.8,1.2,6.7,0,13.4-4.5,16.6-11.8,4.2-9.5.9-20.1-7.3-23.7-1.9-.8-3.8-1.2-5.8-1.2h0Z"/>
    </g>
    <circle class="cls-8" cx="740.7" cy="52.3" r="9.6" transform="translate(-1.3 80.3) rotate(-6.2)"/>
    <g>
      <path class="cls-1" d="M738.3,123.5c-8.1,0-14.8-4.8-16.3-11.7-.8-4,.2-8.1,2.8-11.6,2.7-3.5,6.7-6,11.4-7,1.4-.3,2.8-.4,4.2-.4,8.1,0,14.8,4.8,16.3,11.7,1.7,8.2-4.7,16.6-14.2,18.6-1.4.3-2.8.4-4.2.4Z"/>
      <path class="cls-4" d="M740.5,91.8v2c7.7,0,14,4.5,15.3,10.9.8,3.7-.2,7.5-2.6,10.8-2.5,3.4-6.4,5.7-10.8,6.6-1.3.3-2.7.4-4,.4-7.7,0-14-4.5-15.3-10.9-.8-3.7.2-7.5,2.6-10.8,2.5-3.4,6.4-5.7,10.8-6.6,1.3-.3,2.7-.4,4-.4v-2M740.5,91.8c-1.5,0-2.9.2-4.4.5-10.1,2.1-16.8,11-15,19.7,1.6,7.5,8.9,12.5,17.2,12.5s2.9-.2,4.4-.5c10.1-2.1,16.8-11,15-19.7-1.6-7.5-8.9-12.5-17.2-12.5h0Z"/>
    </g>
    <circle class="cls-8" cx="734.4" cy="108.2" r="9.6" transform="translate(44.3 381.7) rotate(-30)"/>
    <g>
      <path class="cls-1" d="M719.4,156.3c-7.6,0-13.9-4.3-15.7-10.7-1.1-3.9-.4-8.1,2.1-11.7,2.5-3.7,6.3-6.5,10.9-7.7,1.8-.5,3.7-.8,5.5-.8,7.6,0,13.9,4.3,15.7,10.7,2.3,8.1-3.6,16.8-13,19.5-1.8.5-3.7.8-5.5.8Z"/>
      <path class="cls-4" d="M722.2,124.5v2c7.2,0,13.1,4,14.8,9.9,1,3.6.3,7.5-1.9,10.9-2.3,3.5-6,6.1-10.4,7.3-1.7.5-3.5.7-5.2.7-7.2,0-13.1-4-14.8-9.9-1-3.6-.3-7.5,1.9-10.9,2.3-3.5,6-6.1,10.4-7.3,1.7-.5,3.5-.7,5.2-.7v-2M722.2,124.5c-1.9,0-3.8.3-5.8.8-10,2.8-16.1,12-13.7,20.7,1.9,7,8.8,11.4,16.6,11.4s3.8-.3,5.8-.8c10-2.8,16.1-12,13.7-20.7-1.9-7-8.8-11.4-16.6-11.4h0Z"/>
    </g>
    <circle class="cls-8" cx="724.5" cy="140.9" r="9.6" transform="translate(56.7 455.1) rotate(-36.2)"/>
  </g>
  <g>
    <g>
      <path class="cls-1" d="M350.8,166.8c-2.8,0-5.5-.7-7.9-2.1l-9.2-5.3c-3.7-2.1-6.3-5.6-7.4-9.7s-.5-8.4,1.6-12.1c0,0,19.5-33.8,26-45.1,1.8-3.2,3-4.2,3.8-4.9.9-.8,1.3-1.3,1.3-2.9s-.5-2.1-1.3-2.8c-.7-.7-2-1.7-3.8-4.9-6.5-11.3-26-45.1-26-45.1-4.4-7.6-1.8-17.4,5.8-21.8l9.2-5.3c2.4-1.4,5.1-2.1,7.9-2.1,5.7,0,11,3.1,13.9,8l26,45.1c4.4,7.7,2.6,20-.9,23.4-.4.3-4.2,3.4-4.2,6.5s2.9,5.9,3.3,6.3c5.5,8,6,14.5,1.8,21.8l-26,45.1c-2.8,4.9-8.1,8-13.9,8h0Z"/>
      <path class="cls-4" d="M350.8,3.5c5.4,0,10.4,2.9,13.1,7.5l26,45.1c4.3,7.5,2.2,19.3-.7,22.3-.7.6-4.5,3.8-4.5,7.2s2.8,6.2,3.5,6.9c5.2,7.7,5.7,13.9,1.7,20.9l-26,45.1c-2.7,4.6-7.7,7.5-13.1,7.5s-5.2-.7-7.5-2l-9.2-5.3c-7.2-4.2-9.7-13.4-5.5-20.6,0,0,19.5-33.8,26-45.1,1.8-3,2.9-4,3.6-4.7,1-.9,1.6-1.6,1.6-3.5s-.6-2.6-1.6-3.5c-.7-.7-1.9-1.7-3.6-4.7-6.4-11.1-25.8-44.7-26-45.1-4.2-7.2-1.7-16.5,5.5-20.6l9.2-5.3c2.3-1.3,4.9-2,7.5-2M350.8,1.8c-2.8,0-5.7.7-8.4,2.2l-9.2,5.3c-8,4.6-10.8,15-6.2,23,0,0,19.5,33.8,26,45.1,3.7,6.4,5,4.7,5,7.3s-1.4,1-5,7.3c-6.5,11.3-26,45.1-26,45.1-4.6,8-1.9,18.3,6.2,23l9.2,5.3c2.6,1.5,5.5,2.2,8.4,2.2,5.8,0,11.5-3,14.6-8.4l26-45.1c4.6-8,3.5-15-1.9-22.8,0,0-3.1-3.1-3.1-5.8s3.9-5.9,3.9-5.9c3.7-3.6,5.7-16.4,1.1-24.4l-26-45.1c-3.1-5.4-8.8-8.4-14.6-8.4h0Z"/>
    </g>
    <path class="cls-5" d="M363.5,93c-2.7-12.6-.7-26.5,4.3-31.1,5.1-4.6,11.3,1.9,14,14.5,2.7,12.6.7,26.5-4.3,31.1-5.1,4.6-11.3-1.9-14-14.5Z"/>
  </g>
</svg>